<?xml version="1.0" encoding="UTF-8"?>
<svg width="100px" height="38px" viewBox="0 0 100 38" version="1.1" xmlns="http://www.w3.org/2000/svg" xmlns:xlink="http://www.w3.org/1999/xlink">
    <title>3670B280-5B25-49B8-87F4-7BE817A83B69</title>
    <g id="Page-1" stroke="none" stroke-width="1" fill="none" fill-rule="evenodd">
        <g id="Choose-Default-Search---Beta-Main-" transform="translate(-272.000000, -387.000000)" fill-rule="nonzero">
            <g id="Bing_logo" transform="translate(272.500000, 388.000000)">
                <path d="M40.8379074,14.2072837 L40.8379074,25.328793 L45.3471319,25.328793 L45.3471319,14.0978949 C45.7291939,7.75990541 62.7208342,5.66053725 64.4129182,14.0978949 L64.4129182,25.328793 L69.1312746,25.328793 L69.1312746,14.2072837 C69.1312746,12.9310609 68.8115334,11.770289 68.1721724,10.7249759 C67.5327443,9.67969037 66.6086185,8.77720907 65.3997812,8.01753197 C64.1908895,7.25788251 62.7172841,6.66838173 60.9789501,6.24902571 C59.2405629,5.82970915 57.2724174,5.62002176 55.0745059,5.62002176 C52.8965379,5.62002176 50.9383874,5.83578603 49.2000396,6.26726029 C47.4616661,6.69876909 45.9680709,7.30042165 44.7192528,8.07222389 C43.4704219,8.84405968 42.5113335,9.75262379 41.8419601,10.7979093 C41.1725936,11.8432215 40.8379074,12.979676 40.8379074,14.2072837 L40.8379074,14.2072837 Z" id="text2396" fill="#0075BE"></path>
                <path d="M33.1289081,6.78933424 C34.9114891,7.53999419 36.3763527,7.17866501 37.8332173,6.78933424 L37.8332173,25.429875 L33.1289081,25.429875 L33.1289081,6.78933424 Z" id="rect2401" stroke="#000000" stroke-width="0.528571429" fill="#0075BE"></path>
                <ellipse id="path2404" stroke="#000000" stroke-width="0.528571429" fill="#FBA829" cx="35.477379" cy="2.40333747" rx="3.43327361" ry="2.40329178"></ellipse>
                <path d="M31.0375191,16.9855979 C31.6254856,12.694998 28.6713671,9.90518811 26.7088555,8.54127339 C23.8057033,6.52362787 20.1472696,5.52786216 16.6070287,5.34346995 C12.4278146,5.3022036 8.36991405,5.84664528 4.65343277,8.43191125 L4.65343277,0.48281744 L0.00051208,0.48281744 L0.00051208,14.8871079 C-0.0524107467,20.9189021 4.00699739,23.5021721 9.23430411,25.4829991 C11.1335437,25.951507 13.2379893,26.1857673 15.5476477,26.1857673 C17.8190885,26.1857673 19.8996784,25.951507 21.7894046,25.4829991 C23.6790844,25.0144785 25.3111031,24.2613726 26.6854617,23.4345775 C28.059767,22.6077893 29.128694,21.6404406 29.8922428,20.5325383 C30.6557245,19.4246428 31.0374855,18.2423271 31.0375191,16.9855979 L31.0375191,16.9855979 Z M16.9185361,23.6170615 C11.6910883,23.7802513 5.56452867,22.2022397 4.96979757,16.0695914 C4.63933133,12.6619249 8.033218,8.37109016 15.5476477,8.10654312 C18.6372611,7.99777693 25.844425,9.72055515 26.3364056,15.5423256 C26.6397208,19.1315239 22.1459909,23.4538777 16.9185361,23.6170615 L16.9185361,23.6170615 Z" id="text2406" fill="#0075BE"></path>
                <path d="M96.5432485,14.1575902 C96.5398938,11.9515062 95.3397421,10.3719475 93.9818224,9.04625827 C95.4998781,8.87965861 97.1176464,8.86997152 98.6666637,8.99675128 L98.6666637,4.70680157 C95.596453,4.48946949 92.0550301,5.36179827 90.2062141,6.60206096 C89.7292989,6.41746747 89.2283485,6.24984957 88.7033333,6.09924773 C87.0907648,5.63668163 85.3202013,5.40539611 83.391633,5.40538229 C81.430633,5.40539611 79.6479138,5.63668853 78.0434754,6.09924773 C76.4390272,6.56183949 75.0533624,7.18474091 73.8865008,7.96795888 C72.7196194,8.75120349 71.8120538,9.67635445 71.163804,10.7434256 C70.5155344,11.8105233 70.1914124,12.9485654 70.1914124,14.1575705 C70.1914124,15.3560774 70.5155344,16.4783496 71.163804,17.5243988 C71.8120538,18.5704618 72.695308,19.4877352 73.8135664,20.2762181 C74.9318149,21.0647009 76.2364448,21.6823503 77.727456,22.1291534 C80.5459778,22.822636 83.6445157,23.1397773 86.5270525,22.6281009 C94.3285864,25.6099269 91.2360474,31.6287781 88.3019474,32.90188 C82.9024437,35.2447328 77.9687552,33.9314568 75.7660021,30.3921868 L70.7624092,30.3921868 C72.5732869,35.4321798 79.7466693,36.905277 83.2090405,36.946054 C90.6951469,37.0342344 99.0063237,32.083144 95.6965898,25.1647853 C94.7493405,23.1847555 92.4644474,21.5631935 91.06862,21.2124759 C94.5788445,19.6393819 96.547797,17.087933 96.5432485,14.1575705 L96.5432485,14.1575902 Z M83.391633,20.1728105 C78.8273032,20.1728105 75.1564493,17.4393541 75.1564493,14.18913 C75.1564493,10.1118691 80.3392712,8.11082328 83.391633,8.11082328 C87.9948178,8.11082328 91.5030098,11.0672466 91.5030098,14.18913 C91.5030098,18.2224378 86.9680234,20.1728105 83.391633,20.1728105 Z" id="text2411" fill="#0075BE"></path>
            </g>
        </g>
    </g>
</svg>