<?xml version="1.0" encoding="UTF-8"?>
<svg width="140px" height="25px" viewBox="0 0 140 25" version="1.1" xmlns="http://www.w3.org/2000/svg" xmlns:xlink="http://www.w3.org/1999/xlink">
    <title>E645A184-E4C0-4C4F-B2BC-1FBDA524960F</title>
    <defs>
        <linearGradient x1="31.1272895%" y1="8.08545165%" x2="89.4151286%" y2="88.96109%" id="linearGradient-1">
            <stop stop-color="#FF7E74" offset="0%"></stop>
            <stop stop-color="#00AEF0" offset="100%"></stop>
        </linearGradient>
        <path d="M4.57837838,0.0304644949 C2.05635341,0.0304644949 0.0304644949,2.05635341 0.0304644949,4.57837838 C0.0304644949,7.10040335 2.05635341,9.12629226 4.57837838,9.12629226 C7.10040335,9.12629226 9.12629226,7.10040335 9.12629226,4.57837838 C9.12629226,2.05635341 7.10040335,0.0304644949 4.57837838,0.0304644949 Z M8.25805416,4.16493166 L6.60426729,4.16493166 C6.52157795,3.00728085 6.1494759,1.93231939 5.48796116,0.981391943 C6.97636934,1.35349399 8.09267547,2.63517881 8.25805416,4.16493166 Z M3.3793829,4.9918251 L5.81871853,4.9918251 C5.69468451,6.10813123 5.2812378,7.18309269 4.61972305,8.0513308 C3.87551896,7.18309269 3.46207224,6.10813123 3.3793829,4.9918251 Z M3.3793829,4.16493166 C3.50341692,3.04862553 3.91686363,1.97366406 4.57837838,1.10542596 C5.2812378,2.01500873 5.69468451,3.0899702 5.77737386,4.16493166 L3.3793829,4.16493166 Z M3.62745093,0.981391943 C3.00728085,1.93231939 2.63517881,3.00728085 2.55248947,4.16493166 L0.8987026,4.16493166 C1.06408129,2.63517881 2.18038742,1.35349399 3.62745093,0.981391943 Z M0.8987026,4.9918251 L2.55248947,4.9918251 C2.63517881,6.1494759 3.00728085,7.22443737 3.6687956,8.17536481 C2.18038742,7.80326277 1.06408129,6.52157795 0.8987026,4.9918251 Z M5.52930583,8.17536481 C6.1494759,7.22443737 6.52157795,6.1494759 6.64561196,4.9918251 L8.29939883,4.9918251 C8.09267547,6.52157795 6.97636934,7.80326277 5.52930583,8.17536481 Z" id="path-2"></path>
    </defs>
    <g id="Page-1" stroke="none" stroke-width="1" fill="none" fill-rule="evenodd">
        <g id="Choose-Default-Search---Beta-Main-" transform="translate(-20.000000, -19.000000)">
            <g id="Group-3" transform="translate(20.000000, 19.000000)">
                <g id="Group-4" transform="translate(10.700000, 9.820000) rotate(90.000000) translate(-10.700000, -9.820000) translate(9.700000, 5.820000)" stroke="#FFFFFF" stroke-linecap="round" stroke-width="0.84">
                    <line x1="-6.80167034e-14" y1="0.07" x2="1.48339842" y2="0.07" id="Line-12"></line>
                    <line x1="-6.80167034e-14" y1="7.35" x2="1.48339842" y2="7.35" id="Line-12-Copy"></line>
                </g>
                <path d="M87.7575263,17.4128905 C89.7388284,17.4128905 90.5906032,16.2833632 90.5906032,14.4131621 L90.5906032,13.2836347 C90.5906032,11.8208042 90.0536147,10.7838611 88.6463347,10.5061084 C89.9610305,10.2283558 90.3498842,9.35806421 90.3498842,7.95078421 L90.3498842,7.21011053 C90.3498842,5.41397684 89.6462442,4.45110105 87.7019758,4.45110105 L84.98,4.45110105 L84.98,17.4128905 L87.7575263,17.4128905 Z M87.2760884,10.1728053 L85.8317747,10.1728053 L85.8317747,5.22880842 L87.6834589,5.22880842 C89.0722221,5.22880842 89.4981095,5.93244842 89.4981095,7.28417789 L89.4981095,8.11743579 C89.4981095,9.76543474 88.7944695,10.1728053 87.2760884,10.1728053 Z M87.7575263,16.6351832 L85.8317747,16.6351832 L85.8317747,10.9505126 L87.44274,10.9505126 C88.9796379,10.9505126 89.7388284,11.5430516 89.7388284,13.2280842 L89.7388284,14.3946453 C89.7388284,15.8389589 89.1833232,16.6351832 87.7575263,16.6351832 Z M93.2651411,17.4128905 L93.2651411,11.6171189 L94.6168705,11.6171189 C96.0982179,11.6171189 97.0425768,12.0985568 97.0425768,13.8206232 L97.0425768,15.8574758 C97.0425768,16.5611158 97.0981274,17.0240368 97.3203295,17.4128905 L98.2091379,17.4128905 C97.9313853,16.9870032 97.8943516,16.3944642 97.8943516,15.8574758 L97.8943516,13.83914 C97.8943516,12.43186 97.3573632,11.4875011 96.0241505,11.1912316 C97.3018126,10.8949621 97.8943516,10.0246705 97.8943516,8.50628947 L97.8943516,7.37676211 C97.8943516,5.54359474 97.0981274,4.45110105 95.1168253,4.45110105 L92.4133663,4.45110105 L92.4133663,17.4128905 L93.2651411,17.4128905 Z M94.6353874,10.8394116 L93.2651411,10.8394116 L93.2651411,5.22880842 L95.0983084,5.22880842 C96.5055884,5.22880842 97.0425768,6.06206632 97.0425768,7.45082947 L97.0425768,8.67294105 C97.0425768,10.4135242 96.1537684,10.8394116 94.6353874,10.8394116 Z M102.772394,17.5239916 C104.772213,17.5239916 105.642504,16.1352284 105.642504,14.2465105 L105.642504,7.61748105 C105.642504,5.72876316 104.772213,4.34 102.772394,4.34 C100.809608,4.34 99.9393168,5.72876316 99.9393168,7.61748105 L99.9393168,14.2465105 C99.9393168,16.1352284 100.809608,17.5239916 102.772394,17.5239916 Z M102.772394,16.7462842 C101.346597,16.7462842 100.791092,15.7093411 100.791092,14.3020611 L100.791092,7.56193053 C100.791092,6.15465053 101.346597,5.11770737 102.772394,5.11770737 C104.216707,5.11770737 104.790729,6.15465053 104.790729,7.56193053 L104.790729,14.3020611 C104.790729,15.7093411 104.216707,16.7462842 102.772394,16.7462842 Z M110.594614,17.4128905 L112.409264,6.80274 L114.149847,17.4128905 L115.260858,17.4128905 L117.334744,4.45110105 L116.575554,4.45110105 L114.705353,16.2278126 L112.890702,4.50665158 L111.983377,4.50665158 L110.094659,16.2648463 L108.150391,4.45110105 L107.317133,4.45110105 L109.409536,17.4128905 L110.594614,17.4128905 Z M121.768382,17.5239916 C123.749684,17.5239916 124.564425,16.1537453 124.564425,14.2835442 C124.564425,10.7097937 119.879664,10.6542432 119.879664,7.50638 C119.879664,6.13613368 120.398136,5.11770737 121.805416,5.11770737 C123.212696,5.11770737 123.731167,6.15465053 123.731167,7.52489684 L123.731167,7.8582 L124.545908,7.8582 L124.545908,7.58044737 C124.545908,5.71024632 123.749684,4.34 121.786899,4.34 C119.879664,4.35851684 119.027889,5.61766211 119.027889,7.56193053 C119.027889,11.1727147 123.712651,11.2282653 123.712651,14.3390947 C123.712651,15.7278579 123.175662,16.7277674 121.749865,16.7277674 C120.324068,16.7277674 119.78708,15.7278579 119.78708,14.3390947 L119.78708,13.6169379 L118.972339,13.6169379 L118.972339,14.2835442 C118.972339,16.1537453 119.78708,17.5239916 121.768382,17.5239916 Z M131.47932,17.4128905 L131.47932,16.6351832 L127.220446,16.6351832 L127.220446,11.2282653 L130.757163,11.2282653 L130.757163,10.4505579 L127.220446,10.4505579 L127.220446,5.22880842 L131.47932,5.22880842 L131.47932,4.45110105 L126.368672,4.45110105 L126.368672,17.4128905 L131.47932,17.4128905 Z M134.153858,17.4128905 L134.153858,11.6171189 L135.505587,11.6171189 C136.986935,11.6171189 137.931294,12.0985568 137.931294,13.8206232 L137.931294,15.8574758 C137.931294,16.5611158 137.986844,17.0240368 138.209046,17.4128905 L139.097855,17.4128905 C138.820102,16.9870032 138.783068,16.3944642 138.783068,15.8574758 L138.783068,13.83914 C138.783068,12.43186 138.24608,11.4875011 136.912867,11.1912316 C138.190529,10.8949621 138.783068,10.0246705 138.783068,8.50628947 L138.783068,7.37676211 C138.783068,5.54359474 137.986844,4.45110105 136.005542,4.45110105 L133.302083,4.45110105 L133.302083,17.4128905 L134.153858,17.4128905 Z M135.524104,10.8394116 L134.153858,10.8394116 L134.153858,5.22880842 L135.987025,5.22880842 C137.394305,5.22880842 137.931294,6.06206632 137.931294,7.45082947 L137.931294,8.67294105 C137.931294,10.4135242 137.042485,10.8394116 135.524104,10.8394116 Z" id="browser" fill="#000000" fill-rule="nonzero"></path>
                <g id="Group-2" transform="translate(24.780000, 4.340000)" fill="#1D1D1B">
                    <path d="M3.26326,5.84514 L6.15188,5.84514 L6.15188,9.92558 C6.15188,11.98428 5.10132,13.1607 3.07552,13.1607 C1.05014,13.1607 0,11.98428 0,9.92558 L0,3.2347 C0,1.17586 1.05014,0 3.07552,0 C5.10132,0 6.15188,1.17586 6.15188,3.2347 L6.15188,4.4849 L4.20126,4.4849 L4.20126,3.10618 C4.20126,2.18736 3.78896,1.83834 3.13222,1.83834 C2.47562,1.83834 2.0629,2.18736 2.0629,3.10618 L2.0629,10.05438 C2.0629,10.97362 2.47562,11.30458 3.13222,11.30458 C3.78896,11.30458 4.20126,10.97362 4.20126,10.05438 L4.20126,7.68334 L3.26326,7.68334 L3.26326,5.84514 Z" id="Fill-5"></path>
                    <polygon id="Fill-7" points="9.6229 13.00628 7.56 13.00628 7.56 0.14 9.6229 0.14 9.6229 5.65404 11.96692 5.65404 11.96692 0.14 14.06762 0.14 14.06762 13.00628 11.96692 13.00628 11.96692 7.49196 9.6229 7.49196"></polygon>
                    <path d="M15.4,3.23498 C15.4,1.17656 16.5067,0 18.53208,0 C20.55816,0 21.66444,1.17656 21.66444,3.23498 L21.66444,9.92586 C21.66444,11.98442 20.55816,13.16126 18.53208,13.16126 C16.5067,13.16126 15.4,11.98442 15.4,9.92586 L15.4,3.23498 Z M17.46304,10.05466 C17.46304,10.97376 17.87632,11.32306 18.53208,11.32306 C19.18882,11.32306 19.60112,10.97376 19.60112,10.05466 L19.60112,3.10632 C19.60112,2.18736 19.18882,1.83792 18.53208,1.83792 C17.87632,1.83792 17.46304,2.18736 17.46304,3.10632 L17.46304,10.05466 Z" id="Fill-9"></path>
                    <path d="M25.77484,0 C27.78188,0 28.8134,1.1767 28.8134,3.2354 L28.8134,3.63944 L26.86278,3.63944 L26.86278,3.10632 C26.86278,2.18736 26.4873,1.8382 25.83028,1.8382 C25.17438,1.8382 24.79876,2.18736 24.79876,3.10632 C24.79876,5.75302 28.83174,6.24974 28.83174,9.92586 C28.83174,11.9847 27.78188,13.1607 25.7558,13.1607 C23.7307,13.1607 22.68,11.9847 22.68,9.92586 L22.68,9.13542 L24.63048,9.13542 L24.63048,10.05438 C24.63048,10.9732 25.04334,11.30416 25.69966,11.30416 C26.35598,11.30416 26.76842,10.9732 26.76842,10.05438 C26.76842,7.40712 22.73628,6.91096 22.73628,3.2354 C22.73628,1.1767 23.76752,0 25.77484,0" id="Fill-11"></path>
                    <polygon id="Fill-13" points="29.26 0.14 35.63644 0.14 35.63644 1.97862 33.4803 1.97862 33.4803 13.0067 31.41684 13.0067 31.41684 1.97862 29.26 1.97862"></polygon>
                    <polygon id="Fill-15" points="38.74234 5.56234 41.57454 5.56234 41.57454 7.4004 38.74234 7.4004 38.74234 11.1685 42.30618 11.1685 42.30618 13.00698 36.68 13.00698 36.68 0.14 42.30618 0.14 42.30618 1.9782 38.74234 1.9782"></polygon>
                    <path d="M47.85354,13.00628 C47.74154,12.67532 47.66594,12.47288 47.66594,11.42596 L47.66594,9.4038 C47.66594,8.20904 47.2535,7.7679 46.31536,7.7679 L45.60318,7.7679 L45.60318,13.00628 L43.54,13.00628 L43.54,0.14 L46.65374,0.14 C48.7914,0.14 49.7112,1.1144 49.7112,3.09946 L49.7112,4.1104 C49.7112,5.43326 49.27944,6.29762 48.36034,6.72014 C49.39144,7.14266 49.72898,8.11706 49.72898,9.45882 L49.72898,11.44402 C49.72898,12.06926 49.74788,12.52874 49.95396,13.00628 L47.85354,13.00628 Z M45.60318,1.9782 L45.60318,5.92956 L46.40958,5.92956 C47.17902,5.92956 47.64676,5.59916 47.64676,4.56946 L47.64676,3.3012 C47.64676,2.38196 47.3284,1.9782 46.59746,1.9782 L45.60318,1.9782 Z" id="Fill-17"></path>
                    <polygon id="Fill-19" points="52.86694 8.74216 50.26 0.14 52.41642 0.14 53.99296 6.00362 55.56796 0.14 57.53748 0.14 54.9304 8.74216 54.9304 13.00628 52.86694 13.00628"></polygon>
                </g>
                <g id="Group-2">
                    <g id="Group" fill="url(#linearGradient-1)">
                        <path d="M20.0085207,15.3336795 L20.0085207,8.89949245 C20.0085207,3.98426702 15.9452555,0 10.9332708,0 C5.92072695,0 1.85732202,3.98426702 1.85732202,8.89949245 L1.85732202,15.4266914 C1.81846184,16.2678548 1.61479536,18.1973277 0.618548946,20.4547899 C-0.721008983,23.4882374 0.387344854,23.1268196 1.38037622,22.877156 C2.37312801,22.6286114 4.59025504,21.6544339 5.2830286,22.8546374 C5.97524303,24.0541415 6.55283391,25.0961547 8.16916578,24.4166781 C9.78563744,23.7379009 10.5473249,23.5114554 10.7781097,23.5114554 L11.0919266,23.5114554 C11.3225715,23.5114554 12.0845386,23.7379009 13.7007307,24.4166781 C15.3172023,25.0961547 15.8946534,24.0541415 16.5872872,22.8546374 C17.2796414,21.6544339 19.4966287,22.6286114 20.48966,22.877156 C21.4825516,23.1268196 22.5904861,23.4882374 21.2513475,20.4547899 C20.2148431,18.1058543 20.0364776,16.1156789 20.0085207,15.3336795 Z" id="Fill-3"></path>
                    </g>
                    <g id="icon-/-globe" transform="translate(6.359784, 4.794811)">
                        <mask id="mask-3" fill="white">
                            <use xlink:href="#path-2"></use>
                        </mask>
                        <use id="Mask" fill="#FFFFFF" fill-rule="nonzero" xlink:href="#path-2"></use>
                    </g>
                </g>
            </g>
        </g>
    </g>
</svg>