<?xml version="1.0" encoding="UTF-8"?>
<svg width="193px" height="37px" viewBox="0 0 193 37" version="1.1" xmlns="http://www.w3.org/2000/svg" xmlns:xlink="http://www.w3.org/1999/xlink">
    <title>628C455D-CAC7-4BBA-B720-D840BB1AC4BF</title>
    <defs>
        <linearGradient x1="23.5811043%" y1="8.3346177%" x2="76.5028918%" y2="74.9893573%" id="linearGradient-1">
            <stop stop-color="#67A73A" offset="0%"></stop>
            <stop stop-color="#00AEF0" offset="100%"></stop>
        </linearGradient>
    </defs>
    <g id="Page-1" stroke="none" stroke-width="1" fill="none" fill-rule="evenodd">
        <g id="Choose-Default-Search---Beta-Main-" transform="translate(-229.000000, -234.000000)">
            <g id="Group-3" transform="translate(229.000000, 234.000000)">
                <g id="Group-4" transform="translate(16.073864, 14.744318) rotate(90.000000) translate(-16.073864, -14.744318) translate(14.573864, 8.744318)" stroke="#FFFFFF" stroke-linecap="round" stroke-width="1.26136364">
                    <line x1="-1.02135472e-13" y1="0.105113636" x2="2.22750574" y2="0.105113636" id="Line-12"></line>
                    <line x1="-1.02135472e-13" y1="11.0369318" x2="2.22750574" y2="11.0369318" id="Line-12-Copy"></line>
                </g>
                <path d="M131.596331,26.3144354 C134.571501,26.3144354 135.794935,24.2568415 135.794935,21.4485039 C135.794935,16.0820766 128.760188,15.9986606 128.760188,11.2717557 C128.760188,9.21416178 129.538737,7.68486902 131.651942,7.68486902 C133.765146,7.68486902 134.543695,9.24196711 134.543695,11.299561 L134.543695,11.8000568 L135.767129,11.8000568 L135.767129,11.382977 C135.767129,8.57463935 134.571501,6.51704545 131.624136,6.51704545 C128.760188,6.54485078 127.481143,8.43561274 127.481143,11.3551717 C127.481143,16.7772096 134.51589,16.8606256 134.51589,21.5319199 C134.51589,23.6173191 133.709536,25.1188065 131.568526,25.1188065 C129.427516,25.1188065 128.621161,23.6173191 128.621161,21.5319199 L128.621161,20.4475123 L127.397727,20.4475123 L127.397727,21.4485039 C127.397727,24.2568415 128.621161,26.3144354 131.596331,26.3144354 Z M146.178502,26.1476035 L146.178502,24.9797799 L139.783278,24.9797799 L139.783278,16.8606256 L145.094095,16.8606256 L145.094095,15.692802 L139.783278,15.692802 L139.783278,7.85170096 L146.178502,7.85170096 L146.178502,6.68387739 L138.504233,6.68387739 L138.504233,26.1476035 L146.178502,26.1476035 Z M149.805376,26.1476035 L150.778563,21.8377784 L156.840123,21.8377784 L157.81331,26.1476035 L159.092354,26.1476035 L154.754724,6.65607207 L152.891767,6.65607207 L148.637553,26.1476035 L149.805376,26.1476035 Z M156.645486,20.7255655 L150.9732,20.7255655 L153.781538,8.12975419 L156.645486,20.7255655 Z M162.969476,26.1476035 L162.969476,17.4445374 L164.999265,17.4445374 C167.223691,17.4445374 168.641762,18.1674758 168.641762,20.7533708 L168.641762,23.8119563 C168.641762,24.8685586 168.725178,25.5636917 169.058842,26.1476035 L170.393498,26.1476035 C169.976418,25.508081 169.920807,24.6183107 169.920807,23.8119563 L169.920807,20.7811761 C169.920807,18.6679716 169.114453,17.2499001 167.112469,16.805015 C169.031037,16.3601298 169.920807,15.0532796 169.920807,12.7732431 L169.920807,11.0771184 C169.920807,8.32439145 168.725178,6.68387739 165.750009,6.68387739 L161.690432,6.68387739 L161.690432,26.1476035 L162.969476,26.1476035 Z M165.02707,16.2767138 L162.969476,16.2767138 L162.969476,7.85170096 L165.722203,7.85170096 C167.835408,7.85170096 168.641762,9.10294049 168.641762,11.1883397 L168.641762,13.023491 C168.641762,15.6371914 167.307107,16.2767138 165.02707,16.2767138 Z M177.190179,26.3144354 C180.165348,26.3144354 181.388782,24.2012309 181.388782,21.3928932 L181.388782,19.1684674 L180.165348,19.1684674 L180.165348,21.4763092 C180.165348,23.5617084 179.358994,25.1188065 177.217984,25.1188065 C175.076974,25.1188065 174.27062,23.5617084 174.27062,21.4763092 L174.27062,11.3551717 C174.27062,9.26977243 175.076974,7.68486902 177.217984,7.68486902 C179.358994,7.68486902 180.165348,9.26977243 180.165348,11.3551717 L180.165348,13.0512964 L181.388782,13.0512964 L181.388782,11.4385876 C181.388782,8.63025 180.165348,6.51704545 177.190179,6.51704545 C174.215009,6.51704545 172.991575,8.63025 172.991575,11.4385876 L172.991575,21.3928932 C172.991575,24.2012309 174.215009,26.3144354 177.190179,26.3144354 Z M185.404931,26.1476035 L185.404931,16.9996522 L191.466491,16.9996522 L191.466491,26.1476035 L192.773342,26.1476035 L192.773342,6.68387739 L191.466491,6.68387739 L191.466491,15.8318286 L185.404931,15.8318286 L185.404931,6.68387739 L184.125886,6.68387739 L184.125886,26.1476035 L185.404931,26.1476035 Z" id="Search" fill="#000000" fill-rule="nonzero"></path>
                <g id="Group-2" transform="translate(37.210227, 6.517045)" fill="#1D1D1B">
                    <path d="M4.9001875,8.77719886 L9.23780682,8.77719886 L9.23780682,14.904483 C9.23780682,17.995875 7.66026136,19.7624148 4.61827273,19.7624148 C1.57691477,19.7624148 0,17.995875 0,14.904483 L0,4.85730114 C0,1.76569886 1.57691477,0 4.61827273,0 C7.66026136,0 9.23780682,1.76569886 9.23780682,4.85730114 L9.23780682,6.73463068 L6.30871023,6.73463068 L6.30871023,4.6643125 C6.30871023,3.28459091 5.68959091,2.76049432 4.70341477,2.76049432 C3.71744886,2.76049432 3.09769886,3.28459091 3.09769886,4.6643125 L3.09769886,15.097892 C3.09769886,16.4782443 3.71744886,16.9752216 4.70341477,16.9752216 C5.68959091,16.9752216 6.30871023,16.4782443 6.30871023,15.097892 L6.30871023,11.537483 L4.9001875,11.537483 L4.9001875,8.77719886 Z" id="Fill-5"></path>
                    <polygon id="Fill-7" points="14.4499716 19.5305341 11.3522727 19.5305341 11.3522727 0.210227273 14.4499716 0.210227273 14.4499716 8.49023864 17.9698068 8.49023864 17.9698068 0.210227273 21.124267 0.210227273 21.124267 19.5305341 17.9698068 19.5305341 17.9698068 11.2501023 14.4499716 11.2501023"></polygon>
                    <path d="M23.125,4.85772159 C23.125,1.76675 24.7868466,0 27.8282045,0 C30.8706136,0 32.5318295,1.76675 32.5318295,4.85772159 L32.5318295,14.9049034 C32.5318295,17.9960852 30.8706136,19.7632557 27.8282045,19.7632557 C24.7868466,19.7632557 23.125,17.9960852 23.125,14.9049034 L23.125,4.85772159 Z M26.2229091,15.0983125 C26.2229091,16.4784545 26.8435,17.0029716 27.8282045,17.0029716 C28.8143807,17.0029716 29.4335,16.4784545 29.4335,15.0983125 L29.4335,4.66452273 C29.4335,3.28459091 28.8143807,2.75986364 27.8282045,2.75986364 C26.8435,2.75986364 26.2229091,3.28459091 26.2229091,4.66452273 L26.2229091,15.0983125 Z" id="Fill-9"></path>
                    <path d="M38.7041023,0 C41.7179205,0 43.266875,1.76696023 43.266875,4.85835227 L43.266875,5.46506818 L40.3377784,5.46506818 L40.3377784,4.66452273 C40.3377784,3.28459091 39.7739489,2.76028409 38.7873523,2.76028409 C37.8024375,2.76028409 37.2383977,3.28459091 37.2383977,4.66452273 C37.2383977,8.63886932 43.2944148,9.38475568 43.2944148,14.9049034 C43.2944148,17.9965057 41.7179205,19.7624148 38.6755114,19.7624148 C35.6345739,19.7624148 34.0568182,17.9965057 34.0568182,14.9049034 L34.0568182,13.7179602 L36.9857045,13.7179602 L36.9857045,15.097892 C36.9857045,16.4776136 37.6056648,16.9745909 38.5912102,16.9745909 C39.5767557,16.9745909 40.1960852,16.4776136 40.1960852,15.097892 C40.1960852,11.1227045 34.1413295,10.3776591 34.1413295,4.85835227 C34.1413295,1.76696023 35.6898636,0 38.7041023,0" id="Fill-11"></path>
                    <polygon id="Fill-13" points="43.9375 0.210227273 53.5125114 0.210227273 53.5125114 2.97114205 50.2748011 2.97114205 50.2748011 19.5311648 47.1762614 19.5311648 47.1762614 2.97114205 43.9375 2.97114205"></polygon>
                    <polygon id="Fill-15" points="58.1764034 8.35253977 62.4293011 8.35253977 62.4293011 11.1126136 58.1764034 11.1126136 58.1764034 16.7708807 63.5279489 16.7708807 63.5279489 19.5315852 55.0795455 19.5315852 55.0795455 0.210227273 63.5279489 0.210227273 63.5279489 2.97051136 58.1764034 2.97051136"></polygon>
                    <path d="M71.8579943,19.5305341 C71.6898125,19.0335568 71.5762898,18.7295682 71.5762898,17.1574886 L71.5762898,14.1209659 C71.5762898,12.3268864 70.9569602,11.6644602 69.5482273,11.6644602 L68.4788011,11.6644602 L68.4788011,19.5305341 L65.3806818,19.5305341 L65.3806818,0.210227273 L70.0563466,0.210227273 C73.2663068,0.210227273 74.6475,1.67340909 74.6475,4.65422159 L74.6475,6.17227273 C74.6475,8.15871023 73.9991591,9.45665341 72.619017,10.0911193 C74.1673409,10.7255852 74.6741989,12.188767 74.6741989,14.2035852 L74.6741989,17.184608 C74.6741989,18.123483 74.7025795,18.8134489 75.0120341,19.5305341 L71.8579943,19.5305341 Z M68.4788011,2.97051136 L68.4788011,8.90396591 L69.6897102,8.90396591 C70.8451193,8.90396591 71.5474886,8.40782955 71.5474886,6.86160795 L71.5474886,4.95715909 C71.5474886,3.57680682 71.0694318,2.97051136 69.9718352,2.97051136 L68.4788011,2.97051136 Z" id="Fill-17"></path>
                    <polygon id="Fill-19" points="79.386233 13.1274318 75.4715909 0.210227273 78.7097216 0.210227273 81.0770909 9.01517614 83.4421477 0.210227273 86.399625 0.210227273 82.4847727 13.1274318 82.4847727 19.5305341 79.386233 19.5305341"></polygon>
                </g>
                <g id="Group-2">
                    <g id="Group" fill="url(#linearGradient-1)">
                        <path d="M31.9115202,30.7153907 C30.3550809,27.1881741 30.0872432,24.1996802 30.0452624,23.0254115 L30.0452624,13.3636859 C30.0452624,5.9828685 23.9437685,0 16.417655,0 C8.890702,0 2.78899816,5.9828685 2.78899816,13.3636859 L2.78899816,23.1650804 C2.73064481,24.4281911 2.42481446,27.3255326 0.928827558,30.7153907 C-1.08268394,35.2704863 0.581646088,34.7277729 2.07280519,34.3528723 C3.56354449,33.9796518 6.89283427,32.5168042 7.93311925,34.3190577 C8.97256462,36.1202611 9.83988858,37.6849726 12.2670103,36.6646547 C14.6943419,35.6453869 15.8381097,35.305351 16.1846614,35.305351 L16.6558962,35.305351 C17.0022381,35.305351 18.1464256,35.6453869 20.5733375,36.6646547 C23.0006691,37.6849726 23.8677831,36.1202611 24.9078582,34.3190577 C25.9475135,32.5168042 29.2765934,33.9796518 30.7677525,34.3528723 C32.2587017,34.7277729 33.922402,35.2704863 31.9115202,30.7153907" id="Fill-3"></path>
                    </g>
                    <g id="noun_Search_1318798_000000" transform="translate(9.750000, 6.150000)" fill="#FFFFFF" fill-rule="nonzero" stroke="#FFFFFF" stroke-width="0.5">
                        <path d="M15.3270544,13.8266435 L12.0904538,10.5686085 C12.8835281,9.47545197 13.3550858,8.12508218 13.3550858,6.66754018 C13.3550858,2.98081629 10.3542641,0.00142896275 6.68897462,0.00142896275 C3.02368517,0.00142896275 0.0228634039,3.00225073 0.0228634039,6.66754018 C0.0228634039,10.3542641 3.02368517,13.3336514 6.68897462,13.3336514 C8.14651662,13.3336514 9.49688641,12.8620937 10.5900429,12.0690194 L13.8266435,15.3270544 C14.0409879,15.5413988 14.3196357,15.648571 14.576849,15.648571 C14.8340623,15.648571 15.1341444,15.5413988 15.3270544,15.3270544 C15.7557432,14.9198 15.7557432,14.2338979 15.3270544,13.8266435 Z M6.66754018,11.2116417 C4.15971056,11.2116417 2.14487308,9.1753698 2.14487308,6.68897462 C2.14487308,4.181145 4.181145,2.16630752 6.66754018,2.16630752 C9.15393535,2.16630752 11.2116417,4.181145 11.2116417,6.66754018 C11.2116417,9.1753698 9.1753698,11.2116417 6.66754018,11.2116417 Z" id="Shape"></path>
                    </g>
                </g>
            </g>
        </g>
    </g>
</svg>