<?xml version="1.0" encoding="UTF-8"?>
<svg width="196px" height="37px" viewBox="0 0 196 37" version="1.1" xmlns="http://www.w3.org/2000/svg" xmlns:xlink="http://www.w3.org/1999/xlink">
    <title>BD643CA8-E20D-4C1A-8CD5-B5FCC8A45216</title>
    <g id="Page-1" stroke="none" stroke-width="1" fill="none" fill-rule="evenodd">
        <g id="Choose-Default-Search---Beta-Main-" transform="translate(-606.000000, -247.000000)" fill-rule="nonzero">
            <g id="Startpage.com_logo" transform="translate(606.000000, 247.000000)">
                <path d="M142.289667,16.9953333 C141.827052,16.9931698 141.367479,16.9203868 140.926833,16.7795 L140.963833,18.0683333 C141.831075,18.4117915 142.756773,18.5835273 143.6895,18.574 C147.0565,18.574 149.3135,16.6376667 149.3135,13.8441667 C149.3135,11.1555 147.0565,8.806 143.220833,8.806 C137.9545,8.806 134.692333,13.1226667 134.692333,18.2841667 C134.692333,23.3038333 137.775667,26.381 142.4315,26.381 C146.051333,26.381 148.382333,24.6666667 149.214833,23.6615 L148.857167,22.3356667 C147.707375,23.1601156 146.331421,23.6101538 144.916667,23.6245 C142.228,23.6245 139.576333,22.3356667 139.576333,17.2111667 C139.576333,12.8945 140.939167,10.4278333 142.9125,10.4278333 C144.238333,10.4278333 145.2065,11.396 145.2065,13.4001667 C145.2065,15.836 144.0595,16.983 142.302,16.983" id="Path" fill="#374677"></path>
                <path d="M41.7483333,16.1813333 L37,17.5811667 C34.2743333,18.4075 32.8806667,19.8381667 32.8806667,22.0581667 C32.8806667,24.4261667 34.7306667,26.3748333 37.6413333,26.3748333 C40.2251667,26.3748333 41.7976667,25.2278333 42.5746667,24.1856667 C42.8275,25.2586667 43.6538333,26.4056667 45.695,26.4056667 C47.3415,26.4056667 48.47,25.9431667 49.395,24.8331667 L48.9633333,23.865 C48.781295,24.0533608 48.5283376,24.1563346 48.2665,24.1486667 C47.6498333,24.1486667 47.2305,23.828 47.2305,22.9708333 L47.2305,13.32 C47.2305,10.2366667 45.0413333,8.78133333 41.3166667,8.78133333 C36.9075,8.78133333 33.3986667,10.8471667 33.3986667,13.1411667 C33.3986667,14.319 34.3298333,14.9911667 35.5508333,14.9911667 C35.809627,14.987026 36.0675593,14.960201 36.3216667,14.911 C37.0847564,14.7277032 37.6211869,14.0431156 37.6166667,13.2583333 L37.6166667,12.5306667 C37.6166667,11.2048333 38.1901667,10.5203333 39.8428333,10.5203333 C41.3105,10.5203333 42.4945,11.1678333 42.4945,13.32 L42.4945,15.3241667 C42.4945,15.8976667 42.3156667,16.0395 41.7421667,16.1813333 M42.4945,21.6635 C42.4945,23.1003333 41.5941667,23.8526667 40.2375,23.8526667 C38.7266667,23.8526667 37.6536667,22.9893333 37.6536667,21.386 C37.6536667,19.9861667 38.443,18.8761667 40.1203333,18.1608333 L42.4883333,17.2296667 L42.4945,21.6635 Z" id="Shape" fill="#374677"></path>
                <path d="M128.266667,22.9646667 L123.290167,22.8906667 C122.106167,22.8536667 121.353833,22.422 121.353833,21.312 C121.391197,20.8819304 121.554177,20.472336 121.8225,20.1341667 C122.885201,20.48074 123.997825,20.6495088 125.1155,20.6336667 C129.987167,20.6336667 132.749833,17.945 132.749833,14.7198333 C132.734383,12.8305731 131.72746,11.0883621 130.098167,10.1318333 L129.7775,9.94683333 C129.599183,9.8361172 129.413783,9.73723754 129.2225,9.65083333 L128.951167,9.5275 C128.478429,9.33560962 127.989257,9.18700061 127.489667,9.0835 L127.286167,9.0465 C127.717833,8.35583333 129.456833,5.07516667 131.276,4.44616667 C131.935833,4.218 132.392167,4.52016667 133.126,5.1615 C133.607,5.59316667 134.007833,6.28383333 135.154833,6.28383333 C136.301833,6.28383333 137.726333,5.09366667 137.726333,3.81716667 C137.726333,2.54066667 137.3995,0.8695 134.5135,0.8695 C130.486667,0.8695 127.8905,5.03816667 126.422833,7.90566667 C126.422833,7.90566667 126.071333,8.6395 125.985,8.85533333 C125.7075,8.85533333 125.43,8.8245 125.140167,8.8245 C120.3055,8.8245 117.542833,11.5501667 117.542833,14.7013333 C117.542214,16.8105938 118.75711,18.7313789 120.663167,19.6346667 C119.695,20.535 118.1965,21.756 118.1965,23.0756667 C118.163244,24.1425542 118.671293,25.1540119 119.547,25.7643333 C120.050516,26.1122738 120.612355,26.3670856 121.205833,26.5166667 C121.993549,26.7075832 122.796035,26.8313599 123.604667,26.8866667 L126.398167,26.9915 C128.587333,27.0655 130.055,27.639 130.055,29.5013333 C130.055,31.6843333 127.588333,32.9793333 124.178167,32.9793333 C121.421667,32.9793333 119.3435,31.9371667 119.3435,29.97 C119.349562,28.9519885 119.916225,28.0201959 120.817333,27.5465 C120.052667,27.2751667 119.368167,27.0038333 118.7885,26.8435 C117.061833,27.639 116.321833,28.786 116.321833,30.1796667 C116.321833,32.5476667 118.8625,34.4963333 123.4875,34.4963333 C130.1845,34.4963333 134.057167,31.0553333 134.057167,27.4725 C134.057167,24.3151667 131.652167,22.9893333 128.248167,22.9585 M125.134,10.2736667 C127.317,10.2736667 128.0015,12.025 128.0015,14.7136667 C128.0015,17.4023333 127.317,19.1968333 125.134,19.1968333 C122.951,19.1968333 122.3035,17.4393333 122.3035,14.7136667 C122.3035,11.988 122.951,10.2736667 125.134,10.2736667" id="Shape" fill="#374677"></path>
                <path d="M21.201,22.4158333 C21.201,24.3521667 22.4343333,26.3933333 25.9308333,26.3933333 C28.2908289,26.454632 30.465685,25.1207203 31.4808333,22.9893333 L30.5805,22.274 C29.9756643,23.1236573 29.0082837,23.6415709 27.9658333,23.6738333 C26.8188333,23.6738333 25.9246667,23.0571667 25.9246667,21.7375 L25.9246667,11.7166667 L30.5805,11.7166667 L30.5805,9.99616667 L25.9,9.99616667 L25.9,4.97033333 L24.2473333,4.97033333 C24.0685,7.07933333 21.8793333,10.2058333 18.907,10.3538333 L18.907,11.7166667 L21.201,11.7166667 L21.201,22.4158333 Z" id="Path" fill="#374677"></path>
                <path d="M5.2725,18.3643333 C5.3465,17.9635 5.37116667,17.1001667 5.00116667,16.8165 C4.80690332,16.6474327 4.57027402,16.5344475 4.31666667,16.4896667 C1.37516667,16.095 -0.666,21.312 1.54166667,23.5813333 C2.94766667,25.0305 4.85933333,26.1836667 8.399,26.3933333 C14.5656667,26.7633333 18.1423333,23.1805 18.389,19.0673333 C18.6233333,15.244 15.7928333,13.3816667 11.9263333,11.322 L9.31166667,10.0455 C7.0855,8.81216667 5.93233333,7.79466667 6.0125,5.7905 C6.216,3.071 8.47916667,1.69583333 10.9458333,1.95483333 C13.1535,2.18916667 13.3076667,3.46566667 13.2398333,5.143 L13.1473333,6.78333333 C13.1236195,7.08973512 13.2238543,7.39283749 13.4255673,7.62469149 C13.6272802,7.85654549 13.9135976,7.99775599 14.2203333,8.01666667 C15.725,8.10916667 17.5256667,7.4 17.6428333,5.4575 C17.7723333,3.24366667 16.4773333,0.838666667 11.1123333,0.524166667 C5.31566667,0.148 1.74516667,3.45333333 1.52933333,7.06083333 C1.34433333,10.101 2.87983333,12.062 6.42566667,13.9613333 L9.213,15.355 C11.9263333,16.8473333 13.5296667,18.0621667 13.357,20.6398333 C13.1843333,23.2175 11.9263333,25.1661667 8.71966667,24.8331667 C5.513,24.5001667 5.19233333,21.6573333 5.1245,20.5905 C5.11525343,20.4076724 5.11525343,20.2244943 5.1245,20.0416667 C5.13800013,19.4794549 5.1915805,18.9189217 5.28483333,18.3643333" id="Path" fill="#374677"></path>
                <path d="M52.984,13.0363333 L52.984,22.5761667 C52.984,24.0808333 52.7311667,24.6543333 51.2943333,24.6543333 L50.6776667,24.6543333 L50.6776667,26.085 L60.421,26.085 L60.421,24.6666667 L59.681,24.6666667 C58.2133333,24.6666667 57.6768333,24.0931667 57.6768333,22.5885 L57.6768333,13.5666667 C58.4631092,12.8872042 59.3000953,12.2687415 60.1805,11.7166667 C60.3194715,13.0438624 61.4682069,14.0331262 62.8013333,13.9736667 C64.2091779,13.9636862 65.3499016,12.8284468 65.3666667,11.4206667 C65.3666667,10.027 64.3615,8.806 62.4991667,8.806 C61.1363333,8.806 59.0951667,9.77416667 57.6275,11.8153333 L57.6275,11.7166667 C57.6275,10.3538333 56.6593333,8.954 54.3283333,8.954 C52.9564577,8.98174469 51.5999677,9.24886887 50.32,9.74333333 L50.32,11.0691667 C50.6258146,11.0014293 50.9379462,10.9662887 51.2511667,10.9643333 C52.4845,10.9643333 53.0086667,11.7845 53.0086667,13.0425" id="Path" fill="#374677"></path>
                <path d="M75.5725,23.6738333 C74.4255,23.6738333 73.5313333,23.0571667 73.5313333,21.7375 L73.5313333,11.7166667 L78.1871667,11.7166667 L78.1871667,9.99 L73.5313333,9.99 L73.5313333,4.97033333 L71.8786667,4.97033333 C71.6998333,7.0855 69.5168333,10.2058333 66.5383333,10.3538333 L66.5383333,11.7166667 L68.8323333,11.7166667 L68.8323333,22.4158333 C68.8323333,24.3521667 70.0656667,26.3933333 73.5621667,26.3933333 C75.923019,26.4578301 78.0994805,25.1229337 79.1121667,22.9893333 L78.218,22.274 C77.6118723,23.1221883 76.6452776,23.6396812 75.6033333,23.6738333" id="Path" fill="#374677"></path>
                <path d="M152.470833,22.8906667 C151.509304,22.9009204 150.735877,23.6845134 150.738175,24.6460951 C150.740483,25.6076767 151.517654,26.3875559 152.479222,26.3932344 C153.44079,26.3988513 154.227069,25.6281549 154.240679,24.6666667 C154.242399,24.1989945 154.055687,23.7503367 153.722678,23.421969 C153.389669,23.0936014 152.938435,22.9132047 152.470833,22.9215" id="Path" fill="#374677"></path>
                <path d="M162.454667,24.7653333 C160.882167,24.7653333 159.0445,23.9698333 159.0445,20.7138333 C159.0445,17.723 160.0435,16.5945 161.394,16.5945 C162.0785,16.5945 162.343667,16.8596667 162.343667,17.5935 L162.343667,18.611 C162.671626,18.871248 163.078162,19.0125575 163.496833,19.0118333 C163.865522,19.0464463 164.23179,18.9245599 164.506221,18.6759298 C164.780653,18.4272997 164.937994,18.0748054 164.939833,17.7045 C164.939833,16.6623333 163.7065,15.688 161.480333,15.688 C158.273667,15.688 156.059833,18.0128333 156.035167,21.4908333 C156.035167,24.457 157.959167,26.381 160.9315,26.381 C162.455805,26.4129998 163.932886,25.8513553 165.050833,24.8146667 L164.872,24.013 C164.159525,24.4997442 163.317527,24.7617948 162.454667,24.7653333" id="Path" fill="#374677"></path>
                <path d="M171.5135,15.688 C170.088923,15.6508413 168.712789,16.2064321 167.713334,17.222252 C166.71388,18.2380719 166.180711,19.623048 166.241,21.0468333 C166.241,23.9519432 168.596057,26.307 171.501167,26.307 C174.406276,26.307 176.761333,23.9519432 176.761333,21.0468333 C176.823117,19.6269284 176.29386,18.2448821 175.299457,17.2294461 C174.305054,16.2140101 172.934387,15.6559452 171.5135,15.688 M171.5135,25.4313333 C170.138333,25.4313333 169.318167,24.346 169.318167,21.0468333 C169.318167,17.7476667 170.138333,16.65 171.5135,16.65 C172.888667,16.65 173.684167,17.7353333 173.684167,21.053 C173.684167,24.3706667 172.864,25.4375 171.5135,25.4375" id="Shape" fill="#374677"></path>
                <path d="M195.175,25.2093333 C194.422667,25.2093333 194.1575,24.8578333 194.1575,23.9266667 L194.1575,18.0806667 C194.1575,16.5945 193.226333,15.688 191.475,15.688 C190.055267,15.7583607 188.706745,16.3309906 187.670167,17.3036667 C187.448167,16.465 186.5355,15.688 185.074,15.688 C183.721789,15.7681033 182.446398,16.3432367 181.491167,17.3036667 L181.552833,15.688 L180.825167,15.688 C180.2085,16.1566667 178.851833,16.5328333 177.193,16.5328333 L177.193,17.4146667 L177.859,17.4146667 C178.4325,17.4146667 178.611333,17.5935 178.611333,18.1238333 L178.611333,23.9266667 C178.611333,24.8578333 178.457167,25.2093333 177.569167,25.2093333 L177.168333,25.2093333 L177.168333,26.0973333 L182.9095,26.0973333 L182.9095,25.2093333 L182.595,25.2093333 C181.6885,25.2093333 181.509667,24.8331667 181.509667,23.9266667 L181.509667,18.7898333 C181.509667,17.9018333 182.329833,17.3961667 183.359667,17.3961667 C184.3895,17.3961667 184.956833,17.8833333 184.956833,19.055 L184.956833,23.9266667 C184.956833,24.8578333 184.753333,25.2093333 183.89,25.2093333 L183.6495,25.2093333 L183.6495,26.0973333 L189.1995,26.0973333 L189.1995,25.2093333 L188.841833,25.2093333 C188.0895,25.2093333 187.824333,24.8578333 187.824333,23.9266667 L187.824333,18.7898333 C187.824333,17.9018333 188.6445,17.3961667 189.674333,17.3961667 C190.704167,17.3961667 191.246833,17.8833333 191.246833,19.055 L191.246833,23.9266667 C191.246833,24.8578333 191.068,25.2093333 190.204667,25.2093333 L189.964167,25.2093333 L189.964167,26.0973333 L195.483333,26.0973333 L195.483333,25.2093333 L195.175,25.2093333 Z" id="Path" fill="#374677"></path>
                <path d="M91.723,8.75666667 C89.8759084,8.74283276 88.0933849,9.4355461 86.7403333,10.693 L86.8451667,8.75666667 L85.6118333,8.75666667 C84.6436667,9.509 82.4545,10.1195 79.772,10.1195 L79.772,11.5501667 L80.845,11.5501667 C81.7761667,11.5501667 82.0783333,11.84 82.0783333,12.6971667 L82.0783333,31.2773333 C82.0783333,32.782 81.8255,33.3185 80.3578333,33.3185 L79.7411667,33.3185 L79.7411667,34.7183333 L89.5215,34.7183333 L89.5215,33.3 L88.5903333,33.3 C87.1596667,33.3 86.802,32.6833333 86.802,31.2218333 L86.802,13.2706667 C86.802,11.803 87.875,10.9766667 89.5215,10.9766667 C91.7476667,10.9766667 93.7888333,12.7341667 93.7888333,17.8216667 C93.7888333,22.5145 91.8833333,24.6666667 89.6078333,24.8455 C89.2501667,24.8763333 88.9603333,24.8825 88.6458333,24.8825 L88.6458333,26.1158333 C89.0674256,26.1657834 89.4916262,26.1904941 89.9161667,26.1898333 C95.0776667,26.1898333 98.7345,22.644 98.7345,16.8041667 C98.7345,11.8708333 95.7251667,8.74433333 91.7476667,8.74433333" id="Path" fill="#374677"></path>
                <path d="M116.741167,24.8208333 L116.3095,23.8526667 C116.127462,24.0410275 115.874504,24.1440013 115.612667,24.1363333 C114.996,24.1363333 114.576667,23.8156667 114.576667,22.9585 L114.576667,13.32 C114.576667,10.2366667 112.3875,8.78133333 108.662833,8.78133333 C104.253667,8.78133333 100.744833,10.8471667 100.744833,13.1411667 C100.744833,14.319 101.676,14.9911667 102.890833,14.9911667 C103.149662,14.9876104 103.407646,14.96078 103.661667,14.911 C104.448915,14.7466507 105.011232,14.0502037 105.006,13.246 L105.006,12.5306667 C105.006,11.2048333 105.5795,10.5203333 107.226,10.5203333 C108.699833,10.5203333 109.877667,11.1678333 109.877667,13.32 L109.877667,15.3241667 C109.877667,15.8976667 109.698833,16.0395 109.125333,16.1813333 L104.3955,17.5811667 C101.676,18.4075 100.276167,19.8381667 100.276167,22.0581667 C100.276167,24.4261667 102.126167,26.3748333 105.043,26.3748333 C107.620667,26.3748333 109.199333,25.2278333 109.976333,24.1856667 C110.229167,25.2586667 111.049333,26.4056667 113.059667,26.4056667 C114.476714,26.5228705 115.860592,25.9347223 116.759667,24.8331667 M109.896167,21.6758333 C109.896167,23.1126667 109.002,23.865 107.639167,23.865 C106.1345,23.865 105.0615,23.0016667 105.0615,21.3983333 C105.0615,19.9985 105.850833,18.8885 107.528167,18.1731667 L109.89,17.242 L109.896167,21.6758333 Z" id="Shape" fill="#374677"></path>
                <path d="M74.7461667,33.5898333 C69.6895,32.9731667 61.1795,32.0173333 52.6633333,31.524 C44.955,31.0861667 37.7276667,30.9505 34.4038333,30.9505 C15.4968333,30.9505 14.8678333,31.413 3.71233333,32.5908333 C-0.104833333,32.9916667 -0.074,37.4316667 4.16866667,36.9506667 C10.4833333,36.2415 19.3078333,35.335 26.8558333,34.8355 C33.0965,34.4285 42.55,33.9166667 52.9223333,33.9166667 C62.0366667,33.9166667 70.0965,34.0955 74.6536667,34.4285 C74.8118678,34.4676089 74.9783999,34.41152 75.0807054,34.2846709 C75.1830109,34.1578218 75.2025594,33.9831886 75.1308337,33.8368584 C75.0591079,33.6905282 74.9090995,33.5990056 74.7461667,33.6021667" id="Path" fill="#6573FF"></path>
            </g>
        </g>
    </g>
</svg>