<?xml version="1.0" encoding="UTF-8"?>
<svg width="135px" height="37px" viewBox="0 0 135 37" version="1.1" xmlns="http://www.w3.org/2000/svg" xmlns:xlink="http://www.w3.org/1999/xlink">
    <title>CDDF306F-CC50-44FB-BB0A-F1510E10C6D0</title>
    <g id="Page-1" stroke="none" stroke-width="1" fill="none" fill-rule="evenodd">
        <g id="Choose-Default-Search---Beta-Main-" transform="translate(-254.000000, -529.000000)" fill="#5F01D1" fill-rule="nonzero">
            <g id="yahoo-logo" transform="translate(254.500000, 529.000000)">
                <polygon id="path1139" points="0.0344456761 9.01684422 7.96572781 9.01684422 12.5840163 20.8322742 17.2622533 9.01684422 24.9846546 9.01684422 13.3564261 36.987809 5.58508459 36.987809 8.7681239 29.5759445"></polygon>
                <path d="M33.0293772,8.54648153 C27.0702319,8.54648153 23.3030239,13.8909042 23.3030239,19.2131004 C23.3030239,25.2021329 27.4333,29.9503672 32.9163257,29.9503672 C37.006454,29.9503672 38.5486357,27.4583933 38.5486357,27.4583933 L38.5486357,29.3995956 L45.4662373,29.3995956 L45.4662373,9.01696894 L38.5486357,9.01696894 L38.5486357,10.8699344 C38.5486357,10.8699344 36.8280614,8.54648153 33.0293772,8.54648153 L33.0293772,8.54648153 Z M34.5007865,15.0966562 C37.2503838,15.0966562 38.6692755,17.2723375 38.6692755,19.2354941 C38.6692755,21.3494454 37.1491427,23.4239738 34.5007865,23.4239738 C32.305846,23.4239738 30.322311,21.6302312 30.322311,19.3254601 C30.322311,16.9880764 31.9177812,15.0966562 34.5007865,15.0966562 L34.5007865,15.0966562 Z" id="path1141"></path>
                <path d="M47.8486253,29.3994722 L47.8486253,0.0167220535 L55.0840132,0.0167220535 L55.0840132,10.9405057 C55.0840132,10.9405057 56.802598,8.54900295 60.4019291,8.54900295 C64.804664,8.54900295 67.3841818,11.8293996 67.3841818,16.5169456 L67.3841818,29.3994722 L60.2017294,29.3994722 L60.2017294,18.2816755 C60.2017294,16.6953071 59.4460922,15.1628154 57.7344353,15.1628154 C55.9920636,15.1628154 55.0840132,16.71853 55.0840132,18.2816755 L55.0840132,29.3994722 L47.8486253,29.3994722 Z" id="path1145"></path>
                <path d="M79.7202653,8.54889381 C72.8959265,8.54889381 68.8323626,13.7381324 68.8323626,19.2978946 C68.8323626,25.6249969 73.752419,29.9503672 79.7461088,29.9503672 C85.5554644,29.9503672 90.6388389,25.821289 90.6388389,19.4040436 C90.6388389,12.3824135 85.3163903,8.54889381 79.7202653,8.54889381 Z M79.7854295,15.1566387 C82.1960307,15.1566387 83.8639519,17.164407 83.8639519,19.3054645 C83.8639519,21.1316241 82.309751,23.3840025 79.7854295,23.3840025 C77.4723997,23.3840025 75.7365477,21.5286007 75.7365477,19.2854902 C75.7365477,17.1246482 77.1797353,15.1566387 79.7854295,15.1566387 Z" id="path1147"></path>
                <path d="M102.692648,8.54889381 C95.8683167,8.54889381 91.8047471,13.7381324 91.8047471,19.2978946 C91.8047471,25.6249969 96.7248049,29.9503672 102.718495,29.9503672 C108.52785,29.9503672 113.611225,25.821289 113.611225,19.4040436 C113.611225,12.3824135 108.288782,8.54889381 102.692648,8.54889381 Z M102.757813,15.1566387 C105.168408,15.1566387 106.836336,17.164407 106.836336,19.3054645 C106.836336,21.1316241 105.282128,23.3840025 102.757813,23.3840025 C100.444777,23.3840025 98.7089293,21.5286007 98.7089293,19.2854902 C98.7089293,17.1246482 100.152118,15.1566387 102.757813,15.1566387 Z" id="path1153"></path>
                <circle id="path1155" cx="119.320472" cy="25.0276321" r="4.8045712"></circle>
                <polygon id="path1157" points="125.70378 18.4581478 117.054297 18.4581478 124.730855 0.0167220535 133.348041 0.0167220535"></polygon>
            </g>
        </g>
    </g>
</svg>